<?xml version="1.0" encoding="UTF-8" standalone="no"?>
<svg width="1000" height="500" viewBox="0 0 1000 500" xmlns="http://www.w3.org/2000/svg">
  <g fill="#e5e7eb" stroke="#d1d5db" stroke-width="1">
    <!-- North America -->
    <path d="M156,54 L134,80 L159,125 L147,142 L156,156 L190,170 L198,190 L182,208 L198,230 L183,245 L200,267 L183,275 L169,253 L162,260 L145,247 L138,250 L96,247 L68,222 L48,223 L28,202 L26,175 L44,151 L46,134 L38,128 L52,116 L62,82 L94,79 L107,64 L118,75 L156,54" />
    
    <!-- South America -->
    <path d="M230,270 L250,282 L267,309 L279,341 L289,347 L284,359 L298,368 L284,392 L291,421 L277,444 L262,440 L254,421 L244,408 L244,379 L229,354 L228,343 L217,339 L222,317 L216,292 L230,270" />
    
    <!-- Europe -->
    <path d="M439,73 L456,66 L484,77 L506,76 L520,88 L554,83 L565,92 L571,83 L592,85 L598,96 L581,112 L586,125 L560,130 L548,147 L520,152 L516,137 L498,137 L490,147 L468,153 L438,153 L424,145 L419,124 L442,115 L439,99 L451,88 L439,73" />
    
    <!-- Africa -->
    <path d="M418,154 L479,154 L502,175 L520,177 L527,209 L552,235 L557,258 L491,334 L473,335 L452,348 L418,330 L404,330 L401,322 L382,312 L376,299 L382,277 L397,266 L399,245 L407,224 L430,209 L427,174 L418,154" />
    
    <!-- Asia -->
    <path d="M569,88 L584,74 L640,77 L658,65 L680,64 L737,88 L771,88 L784,103 L804,105 L811,121 L842,122 L865,131 L870,147 L850,150 L841,139 L797,141 L791,156 L802,172 L778,197 L767,186 L773,172 L761,172 L761,194 L736,196 L721,207 L727,232 L752,232 L761,220 L784,225 L793,216 L811,231 L795,251 L782,256 L778,271 L747,280 L734,273 L714,293 L699,271 L684,278 L664,265 L645,263 L639,250 L622,248 L617,232 L622,216 L641,207 L642,190 L623,180 L603,186 L580,163 L561,161 L554,145 L539,153 L525,136 L504,134 L495,137 L493,127 L495,114 L520,105 L526,92 L546,88 L569,88" />
    
    <!-- Australia -->
    <path d="M798,336 L808,317 L829,308 L853,307 L882,322 L882,341 L863,381 L836,394 L812,386 L805,372 L785,361 L783,341 L798,336" />
  </g>
</svg> 